{"title":"Drug War Du zhan 2012 DVDrip English Subtitles Xvid LKRG","uid":10698895,"size":883652393,"categoryP":"video","categoryS":"movies","magnet":"?xt=urn:btih:fc66c8f5a10ac76532f172946280621f2c0216cd&amp;dn=Drug+War+Du+zhan+2012+DVDrip+English+Subtitles+Xvid+LKRG&amp;tr=udp%3A%2F%2Ftracker.openbittorrent.com%3A80&amp;tr=udp%3A%2F%2Fopen.demonii.com%3A1337&amp;tr=udp%3A%2F%2Ftracker.coppersurfer.tk%3A6969&amp;tr=udp%3A%2F%2Fexodus.desync.com%3A6969","seeders":8,"leechers":2,"uploader":".BONE.","files":2,"time":1407203688,"description":"PLOT\n\nA drug cartel boss who is arrested in a raid is coerced into betraying his former accomplices\nas part of an undercover operation.\n\nRuntime ..........: 1h 46mn\nFile Size ........: 843 MB\nResolution .......: 720 x 352 &lt;a href=&quot;\nhttp://www.imdb.com/title/tt2165735/&quot; rel=&quot;nofollow&quot; target=&quot;_NEW&quot;&gt;\nhttp://www.imdb.com/title/tt2165735/&lt;/a&gt;\nGenre ............: Action,Crime,Drama\nLanguage .........: Mandarin,Cantonese\nSubtitles ........: English\nComplete name : Drug War Du zhan 2012 DVDrip English Subtitles Xvid LKRGDWar_LKRG.avi\nFormat : AVI\nFormat/Info : Audio Video Interleave\nFile size : 843 MiB\nDuration : 1h 46mn\nOverall bit rate : 1 107 Kbps\nWriting application : VirtualDubMod 1.5.10.2 (build 2540/release)\nWriting library : VirtualDubMod build 2540/release\nVideo\nID : 0\nFormat : MPEG-4 Visual\nFormat profile : Advanced Simple@L5\nFormat settings, BVOP : 2\nFormat settings, QPel : No\nFormat settings, GMC : No warppoints\nFormat settings, Matrix : Default (H.263)\nMuxing mode : Packed bitstream\nCodec ID : XVID\nCodec ID/Hint : XviD\nDuration : 1h 46mn\nBit rate : 871 Kbps\nWidth : 720 pixels\nHeight : 352 pixels\nDisplay aspect ratio : 2.479\nFrame rate : 29.970 fps\nColor space : YUV\nChroma subsampling : 4:2:0\nBit depth : 8 bits\nScan type : Progressive\nCompression mode : Lossy\nBits/(Pixel*Frame) : 0.115\nStream size : 663 MiB (79%)\nWriting library : XviD 1.2.1 (UTC 2008-12-04)\nAudio\nID : 1\nFormat : AC-3\nFormat/Info : Audio Coding 3\nMode extension : CM (complete main)\nFormat settings, Endianness : Big\nCodec ID : 2000\nDuration : 1h 46mn\nBit rate mode : Constant\nBit rate : 224 Kbps\nChannel(s) : 2 channels\nChannel positions : Front: L R\nSampling rate : 48.0 KHz\nBit depth : 16 bits\nCompression mode : Lossy\nStream size : 171 MiB (20%)\nAlignment : Split accross interleaves\nInterleave, duration : 33 ms (1.00 video frame)\nInterleave, preload duration : 500 ms","torrent":{"xt":"urn:btih:fc66c8f5a10ac76532f172946280621f2c0216cd","amp;dn":"Drug+War+Du+zhan+2012+DVDrip+English+Subtitles+Xvid+LKRG","amp;tr":["udp%3A%2F%2Ftracker.openbittorrent.com%3A80","udp%3A%2F%2Fopen.demonii.com%3A1337","udp%3A%2F%2Ftracker.coppersurfer.tk%3A6969","udp%3A%2F%2Fexodus.desync.com%3A6969"],"infoHash":"fc66c8f5a10ac76532f172946280621f2c0216cd","infoHashBuffer":{"type":"Buffer","data":[252,102,200,245,161,10,199,101,50,241,114,148,98,128,98,31,44,2,22,205]},"announce":[],"urlList":[]}}